<?xml version="1.0" standalone="no"?>
<!DOCTYPE svg PUBLIC "-//W3C//DTD SVG 20010904//EN"
 "http://www.w3.org/TR/2001/REC-SVG-20010904/DTD/svg10.dtd">
<svg version="1.0" xmlns="http://www.w3.org/2000/svg"
 width="260.000000pt" height="260.000000pt" viewBox="0 0 260.000000 260.000000"
 preserveAspectRatio="xMidYMid meet">
<metadata>
Created by potrace 1.11, written by Peter Selinger 2001-2013
</metadata>
<g transform="translate(0.000000,260.000000) scale(0.100000,-0.100000)"
fill="#000000" stroke="none">
<path d="M1140 1979 c-122 -21 -246 -105 -298 -204 -24 -44 -27 -61 -27 -150
0 -116 14 -152 87 -222 61 -59 146 -95 363 -153 215 -58 258 -75 319 -125 52
-43 76 -95 76 -169 0 -158 -121 -251 -345 -263 -173 -9 -335 36 -456 129 l-46
36 -22 -38 -21 -38 37 -32 c49 -41 181 -104 263 -126 82 -23 300 -25 380 -5
189 47 298 161 308 321 5 92 -8 146 -51 202 -66 87 -140 122 -407 194 -177 48
-265 84 -319 129 -73 63 -93 178 -45 273 53 107 145 152 324 160 134 5 227
-14 343 -73 l67 -34 20 39 20 40 -42 22 c-167 88 -344 117 -528 87z"/>
</g>
</svg>
